<?xml version="1.0" encoding="UTF-8"?>
<svg id="_레이어_1" data-name="레이어 1" xmlns="http://www.w3.org/2000/svg" viewBox="0 0 350 350">
  <defs>
    <style>
      .cls-1 {
        fill: #000;
      }

      .cls-1, .cls-2 {
        stroke-width: 0px;
      }

      .cls-2 {
        fill: #fff;
      }
    </style>
  </defs>
  <g>
    <path class="cls-2" d="M185.93,296.86c-10.12,5.41-20.32,10.63-30.59,15.7l11.09,19.89c10.27-5.07,20.48-10.28,30.61-15.67l-11.1-19.92Z"/>
    <path class="cls-2" d="M272.35,242.14c-8.37,6.89-17.1,13.18-26.05,19.13l11.23,20.14c8.99-5.86,17.8-12.02,26.28-18.72l-11.46-20.56Z"/>
    <path class="cls-2" d="M308.12,204.07c-6.65,9.79-14.43,18.6-22.97,26.76l11.65,20.91c8.66-7.83,16.66-16.25,23.66-25.52l-12.34-22.14Z"/>
    <path class="cls-2" d="M329.61,149.36c-1.59,12.09-5.27,24.17-10.91,36.2-.27.58-.56,1.14-.84,1.72l12.94,23.21c1.73-3.04,3.36-6.16,4.87-9.39,3.88-8.3,6.85-16.62,8.87-24.95l-14.93-26.79Z"/>
    <path class="cls-2" d="M321.86,94.22c2.44,5.75,4.35,11.52,5.75,17.29l20.1,36.05c-.32-13.29-3.16-26.56-8.72-39.74-8.27-19.62-20.21-34.45-36.1-43.22,7.7,7.95,14,17.91,18.97,29.62Z"/>
    <path class="cls-2" d="M140.31,319.87c-5.28,2.53-10.57,5.02-15.88,7.49-.43.2-.86.39-1.29.57-6.28,2.65-9.39,2.62-13-1.43,3.73,5.34,7.45,10.68,11.17,16.03,4.71,6.78,7.75,7.39,15.33,4.17.44-.19.88-.38,1.31-.59,4.49-2.1,8.97-4.22,13.44-6.36l-11.09-19.89Z"/>
    <path class="cls-2" d="M232.22,270.28c-2.28,1.41-4.58,2.82-6.87,4.21-8.18,4.95-16.44,9.74-24.76,14.38l11.12,19.94c9.73-5.4,19.39-10.98,28.94-16.8.92-.56,1.84-1.12,2.75-1.69l-11.18-20.05Z"/>
    <path class="cls-2" d="M175.21,80.43c.25,2.21.25,4.47.39,7.17.59-.87.94-1.37,1.27-1.88,2.76-4.29,5.68-8.28,8.74-11.96-4.25-13.2-11.23-24.9-21.17-34.87-4.01-4.03-8.21-7.54-12.56-10.55,13.4,14.19,21,31.74,23.33,52.08Z"/>
  </g>
  <path class="cls-1" d="M174.99,85.45c.58-.9.93-1.41,1.26-1.93,18.36-29.6,43.68-45.68,76.39-44.78,33.22.91,56.05,19.63,69.6,50.9,13.24,30.55,11.78,61.79-2.23,92.9-9.17,20.36-22.76,37-38.61,51.71-16.79,15.58-35.39,28.28-54.39,40.31-32.67,20.68-66.57,38.66-100.99,55.49-.43.21-.86.41-1.29.6-7.46,3.32-10.48,2.76-15.22-3.91-17.12-24.08-34.42-48.03-51.03-72.52-14.12-20.81-27.07-42.54-37.93-65.64C11.22,168.71,3.83,148.08,1.61,125.49c-2.24-22.82.75-44.94,10.79-65.77C26.82,29.81,48.86,9.73,79.76,3.15c26.32-5.61,49.58,1.64,68.96,20.66,14.75,14.48,23.13,32.83,25.8,54.36.28,2.24.3,4.53.47,7.29Z"/>
  <g>
    <path class="cls-2" d="M77.24,99.07c-1.88-.45-3.38-1.28-4.51-2.49-1.13-1.21-1.86-2.63-2.2-4.26-.33-1.63-.28-3.36.16-5.19.58-2.43,1.76-4.67,3.54-6.71,1.77-2.04,4.05-3.53,6.82-4.48,2.77-.94,5.98-.98,9.63-.11,1.77.42,3.37.98,4.79,1.67,1.42.69,2.75,1.4,3.99,2.12,1.25.73,2.55,1.43,3.92,2.1,1.37.68,2.87,1.26,4.52,1.77l-9.91,1.08-.04-.49c-.52-.5-1.15-.98-1.86-1.45-.72-.47-1.71-.85-2.98-1.16-2.69-.64-5.01-.25-6.96,1.19-1.95,1.44-3.3,3.73-4.06,6.87-.34,1.42-.52,2.84-.54,4.25-.02,1.42.17,2.98.57,4.68-.75.46-1.58.72-2.48.77-.9.05-1.7,0-2.41-.18ZM76.52,132.98c-1.47-.35-2.71-.93-3.73-1.74-1.01-.81-1.51-1.69-1.5-2.65.79-.19,1.48-.54,2.07-1.07.58-.53,1.14-1.25,1.69-2.17.54-.92,1.15-2.12,1.83-3.62l12.76-28.46c1.19-2.72,2.67-4.84,4.46-6.37,1.79-1.53,3.84-2.55,6.16-3.07,2.32-.52,4.89-.62,7.72-.32l-19.1,41.82c-.99,2.12-2.03,3.84-3.13,5.16-1.09,1.32-2.37,2.19-3.84,2.62-1.47.43-3.27.38-5.4-.13ZM93.15,109.87l2.43-5.45,19.54,4.68-2.43,5.45-19.54-4.68ZM100.08,135.33l19.46-43.67c.98-2.07,2.02-3.72,3.12-4.96,1.1-1.24,2.41-2.06,3.93-2.48,1.52-.41,3.29-.38,5.32.11,1.42.34,2.63.9,3.62,1.67.99.77,1.48,1.67,1.45,2.68-1.07.66-2.01,1.53-2.84,2.62-.82,1.09-1.64,2.48-2.44,4.16-.81,1.68-1.77,3.73-2.88,6.15l-15.94,35.34-12.8-1.62Z"/>
    <path class="cls-2" d="M134.92,144.63c-2.33-.56-4.21-1.45-5.63-2.68-1.42-1.23-2.35-2.72-2.79-4.49-.44-1.77-.38-3.79.17-6.07.32-1.32.93-3.11,1.85-5.39.92-2.27,2.21-5.27,3.88-9,1.67-3.73,3.8-8.42,6.38-14.07l12.08,1.6c-2.34,5.07-4.29,9.31-5.86,12.71-1.57,3.4-2.84,6.19-3.81,8.37-.98,2.18-1.73,3.97-2.25,5.37-.52,1.4-.91,2.61-1.15,3.62-.22.91-.32,1.8-.31,2.66,0,.86.23,1.62.66,2.29.43.67,1.18,1.13,2.24,1.38,1.57.38,3.03.12,4.36-.76,1.34-.89,2.51-2.09,3.52-3.62,1.01-1.53,1.86-3.06,2.55-4.62l10.48-23.62,12.15,1.62-13.04,28.96c-.16.44-.36.96-.61,1.54-.25.58-.43,1.1-.53,1.56-.21.86-.16,1.66.15,2.41.3.74.95,1.29,1.94,1.63-.51,1-1.26,1.75-2.26,2.23s-2.06.77-3.18.85c-1.12.08-2.21,0-3.27-.26-1.52-.36-2.79-1.06-3.8-2.08-1.02-1.02-1.53-2.28-1.55-3.79-1.57,1.18-3.48,1.88-5.73,2.09-2.25.21-4.46.06-6.64-.46Z"/>
    <path class="cls-2" d="M166.17,151.79l17.26-38.16,10.18,1.15-2.78,6.89c1.62-2.08,3.55-3.54,5.8-4.4,2.24-.86,4.66-.98,7.24-.36,2.74.66,4.61,1.9,5.62,3.72,1.01,1.82,1.22,3.98.62,6.46-.68,2.84-2.08,5.04-4.19,6.59-2.12,1.56-4.46,2.03-7.05,1.41-.76-.18-1.5-.47-2.21-.85-.71-.38-1.21-.88-1.49-1.48,1-.83,1.94-1.95,2.81-3.35.87-1.4,1.46-2.73,1.76-4,.22-.91.22-1.7,0-2.37-.22-.67-.81-1.12-1.77-1.35s-1.92-.1-2.87.4c-.95.5-1.86,1.27-2.73,2.32-.87,1.05-1.7,2.29-2.5,3.7-.8,1.42-1.55,2.93-2.25,4.53l-8.86,20.88-12.61-1.73Z"/>
    <path class="cls-2" d="M208.22,162.18c-2.08-.5-3.63-1.46-4.66-2.88-1.03-1.42-1.28-3.2-.77-5.33.21-.86.55-1.92,1.04-3.17.49-1.25,1.08-2.66,1.78-4.24.7-1.57,1.5-3.29,2.4-5.13.9-1.85,1.84-3.82,2.82-5.92.98-2.1,2.02-4.29,3.1-6.57,1.08-2.29,2.18-4.61,3.28-6.97,1.2-2.77,2.23-5.28,3.09-7.54.86-2.26,1.49-4.2,1.88-5.82.17-.71.3-1.36.39-1.96.09-.59.11-1.14.07-1.63.92-.26,1.97-.4,3.15-.41,1.18-.01,2.31.11,3.37.36,1.62.39,2.98,1.16,4.07,2.3s1.37,2.83.84,5.07c-.12.51-.39,1.3-.81,2.38-.42,1.08-.93,2.34-1.55,3.77-.61,1.44-1.28,2.94-2,4.51-.72,1.57-1.43,3.13-2.12,4.68-2.4,5.11-4.37,9.3-5.91,12.58-1.54,3.28-2.75,5.87-3.63,7.77-.89,1.91-1.53,3.33-1.95,4.28-.41.95-.7,1.62-.84,2.01-.15.39-.26.74-.33,1.05-.21.86-.16,1.66.15,2.41.3.74.95,1.29,1.94,1.63-.51,1-1.25,1.75-2.23,2.24-.98.49-2.03.77-3.18.85-1.14.07-2.27-.02-3.39-.29Z"/>
    <path class="cls-2" d="M226.77,181.1c-1.88-.45-3.23-1.35-4.06-2.7s-1.01-2.99-.55-4.92c.35-1.47,1.05-2.78,2.1-3.92,1.05-1.14,2.3-2.16,3.74-3.04,1.44-.89,2.89-1.64,4.32-2.26l-4.9-1.01c.89-4.18,1.68-7.96,2.35-11.34.67-3.38,1.28-6.51,1.81-9.42.53-2.9.92-5.64,1.16-8.21.27-2.24.31-3.97.12-5.2-.19-1.22-.67-2.22-1.45-3,1.18-.68,2.39-1.06,3.61-1.15,1.23-.08,2.5.04,3.82.35,2.08.5,3.57,1.24,4.49,2.24.91,1,1.44,2.27,1.57,3.83.14,1.56.01,3.47-.37,5.74-.12.72-.34,1.76-.66,3.1s-.68,2.91-1.08,4.69c-.4,1.78-.85,3.74-1.36,5.87l-2.21,8.88c2.48-2.09,4.82-4.35,7.02-6.8s4.11-5.06,5.73-7.83c1.63-2.77,2.8-5.63,3.5-8.57.16-.66.3-1.36.42-2.11.13-.75.15-1.53.08-2.35.88-.54,1.91-.91,3.08-1.11,1.17-.2,2.39-.15,3.66.15,1.11.27,2.04.7,2.78,1.31.74.61,1.26,1.41,1.55,2.42.29,1.01.27,2.22-.07,3.64-.4,1.67-1.17,3.43-2.31,5.28-1.14,1.85-2.53,3.7-4.18,5.55-1.65,1.86-3.51,3.68-5.57,5.46-2.06,1.79-4.21,3.48-6.44,5.09-2.23,1.61-4.47,3.06-6.71,4.34-1.94,1.14-3.58,2.29-4.93,3.44-1.35,1.15-2.29,2.84-2.82,5.07-.28,1.17-.29,2.44-.03,3.81.26,1.38.69,2.59,1.3,3.65-1.19.73-2.55,1.17-4.06,1.32-1.51.15-3,.05-4.47-.31Z"/>
    <path class="cls-2" d="M69.96,208.92c-2.48-.59-4.73-1.28-6.74-2.06-2.01-.78-3.65-1.6-4.92-2.46-1.27-.87-2.04-1.71-2.33-2.53.83-.34,1.54-.8,2.14-1.38.59-.58,1.19-1.38,1.78-2.39.59-1.01,1.21-2.3,1.85-3.86l10.39-22.92c1.31-3.01,2.91-5.15,4.79-6.41,1.88-1.26,4.37-1.53,7.46-.79,1.67.4,2.99,1.05,3.95,1.95.96.9,1.4,1.88,1.31,2.93-1.5.23-2.63.98-3.39,2.24-.76,1.27-1.46,2.57-2.1,3.92l-2.01,4.34,2.13.51c2.95.65,5.4.73,7.34.23,1.94-.5,3.48-1.39,4.62-2.67,1.14-1.28,1.88-2.77,2.23-4.45.68-2.84-.03-5.31-2.12-7.42-2.1-2.11-5.4-3.7-9.91-4.78-2.28-.55-4.63-.81-7.04-.8-2.42.01-4.71.4-6.87,1.17-2.17.77-4.05,1.97-5.64,3.59s-2.72,3.79-3.36,6.47c-.39,1.41-.58,2.77-.58,4.08,0,1.32.23,2.86.66,4.62-.81.45-1.69.72-2.65.81-.96.09-1.82.05-2.58-.14-1.83-.44-3.28-1.24-4.37-2.41-1.09-1.17-1.8-2.57-2.13-4.21-.33-1.63-.28-3.36.16-5.19.89-3.7,2.92-6.78,6.11-9.23,3.19-2.45,7.33-4.03,12.43-4.74,5.1-.71,11-.26,17.69,1.34,3.14.75,6.1,1.72,8.88,2.89,2.77,1.17,5.16,2.52,7.15,4.04,1.99,1.52,3.43,3.23,4.32,5.13.88,1.9,1.05,3.99.51,6.27-.43,1.78-1.24,3.35-2.46,4.72-1.21,1.37-2.68,2.48-4.41,3.33-1.73.85-3.6,1.43-5.61,1.75,1.41.82,2.72,1.84,3.93,3.07,1.21,1.23,2.08,2.7,2.6,4.4.53,1.71.5,3.67-.08,5.89-.71,2.73-1.96,5.05-3.76,6.98-1.8,1.93-4.09,3.39-6.88,4.38-2.79,1-6.06,1.48-9.84,1.46-3.77-.02-7.99-.59-12.66-1.7ZM73.32,204.25c3.09.74,5.86.81,8.31.22,2.45-.59,4.46-1.72,6.04-3.38,1.58-1.66,2.64-3.66,3.2-5.99.68-2.84.12-5.08-1.69-6.72-1.81-1.64-4.88-3.03-9.21-4.18l-6.12,13.49c-.79,1.74-1.54,3.04-2.26,3.88-.71.85-1.39,1.38-2.03,1.6.6.2,1.21.38,1.84.56.63.18,1.27.34,1.93.5Z"/>
    <path class="cls-2" d="M114.73,219.39c-2.33-.56-4.21-1.45-5.63-2.68-1.42-1.23-2.35-2.72-2.79-4.49-.44-1.77-.38-3.79.17-6.07.32-1.32.93-3.11,1.85-5.39.92-2.27,2.21-5.27,3.88-9,1.67-3.73,3.8-8.42,6.38-14.07l12.08,1.6c-2.34,5.07-4.29,9.31-5.86,12.71-1.57,3.4-2.84,6.19-3.81,8.37-.98,2.18-1.73,3.97-2.25,5.37-.52,1.4-.91,2.61-1.15,3.62-.22.91-.32,1.8-.31,2.66,0,.86.23,1.62.66,2.29.43.67,1.18,1.13,2.24,1.38,1.57.38,3.03.12,4.36-.76,1.34-.89,2.51-2.09,3.52-3.62,1.01-1.53,1.86-3.06,2.55-4.62l10.48-23.62,12.15,1.62-13.04,28.96c-.16.44-.36.96-.61,1.54-.25.58-.43,1.1-.53,1.56-.21.86-.16,1.66.15,2.41.3.74.95,1.29,1.94,1.63-.51,1-1.26,1.75-2.26,2.23s-2.06.77-3.18.85c-1.12.08-2.21,0-3.27-.26-1.52-.36-2.79-1.06-3.8-2.08-1.02-1.02-1.53-2.28-1.55-3.79-1.57,1.18-3.48,1.88-5.73,2.09-2.25.21-4.46.06-6.64-.46Z"/>
    <path class="cls-2" d="M145.98,226.55l17.26-38.16,10.18,1.15-2.78,6.89c1.62-2.08,3.55-3.54,5.8-4.4,2.24-.86,4.66-.98,7.24-.36,2.74.66,4.61,1.9,5.62,3.72,1.01,1.82,1.22,3.98.62,6.46-.68,2.84-2.08,5.04-4.19,6.59-2.12,1.56-4.46,2.03-7.05,1.41-.76-.18-1.5-.47-2.21-.85-.71-.38-1.21-.88-1.49-1.48,1-.83,1.94-1.95,2.81-3.35.87-1.4,1.46-2.73,1.76-4,.22-.91.22-1.7,0-2.37-.22-.67-.81-1.12-1.77-1.35s-1.92-.1-2.87.4c-.95.5-1.86,1.27-2.73,2.32-.87,1.05-1.7,2.29-2.5,3.7-.8,1.42-1.55,2.93-2.25,4.53l-8.86,20.88-12.61-1.73Z"/>
    <path class="cls-2" d="M188.04,236.94c-2.08-.5-3.63-1.46-4.66-2.88-1.03-1.42-1.28-3.2-.77-5.33.21-.86.55-1.92,1.04-3.17.49-1.25,1.08-2.66,1.78-4.24.7-1.57,1.5-3.29,2.4-5.13.9-1.85,1.84-3.82,2.82-5.92.98-2.1,2.02-4.29,3.1-6.57,1.08-2.29,2.18-4.61,3.28-6.97,1.2-2.77,2.23-5.28,3.09-7.54.86-2.26,1.49-4.2,1.88-5.82.17-.71.3-1.36.39-1.96.09-.59.11-1.14.07-1.63.92-.26,1.97-.4,3.15-.41,1.18-.01,2.31.11,3.37.36,1.62.39,2.98,1.16,4.07,2.3s1.37,2.83.84,5.07c-.12.51-.39,1.3-.81,2.38-.42,1.08-.93,2.34-1.55,3.77-.61,1.44-1.28,2.94-2,4.51-.72,1.57-1.43,3.13-2.12,4.68-2.4,5.11-4.37,9.3-5.91,12.58-1.54,3.28-2.75,5.87-3.63,7.77-.89,1.91-1.53,3.33-1.95,4.28-.41.95-.7,1.62-.84,2.01-.15.39-.26.74-.33,1.05-.21.86-.16,1.66.15,2.41.3.74.95,1.29,1.94,1.63-.51,1-1.25,1.75-2.23,2.24-.98.49-2.03.77-3.18.85-1.14.07-2.27-.02-3.39-.29Z"/>
    <path class="cls-2" d="M206.58,255.85c-1.88-.45-3.23-1.35-4.06-2.7s-1.01-2.99-.55-4.92c.35-1.47,1.05-2.78,2.1-3.92,1.05-1.14,2.3-2.16,3.74-3.04,1.44-.89,2.89-1.64,4.32-2.26l-4.9-1.01c.89-4.18,1.68-7.96,2.35-11.34.67-3.38,1.28-6.51,1.81-9.42.53-2.9.92-5.64,1.16-8.21.27-2.24.31-3.97.12-5.2-.19-1.22-.67-2.22-1.45-3,1.18-.68,2.39-1.06,3.61-1.15,1.23-.08,2.5.04,3.82.35,2.08.5,3.57,1.24,4.49,2.24.91,1,1.44,2.27,1.57,3.83.14,1.56.01,3.47-.37,5.74-.12.72-.34,1.76-.66,3.1s-.68,2.91-1.08,4.69c-.4,1.78-.85,3.74-1.36,5.87l-2.21,8.88c2.48-2.09,4.82-4.35,7.02-6.8s4.11-5.06,5.73-7.83c1.63-2.77,2.8-5.63,3.5-8.57.16-.66.3-1.36.42-2.11.13-.75.15-1.53.08-2.35.88-.54,1.91-.91,3.08-1.11,1.17-.2,2.39-.15,3.66.15,1.11.27,2.04.7,2.78,1.31.74.61,1.26,1.41,1.55,2.42.29,1.01.27,2.22-.07,3.64-.4,1.67-1.17,3.43-2.31,5.28-1.14,1.85-2.53,3.7-4.18,5.55-1.65,1.86-3.51,3.68-5.57,5.46-2.06,1.79-4.21,3.48-6.44,5.09-2.23,1.61-4.47,3.06-6.71,4.34-1.94,1.14-3.58,2.29-4.93,3.44-1.35,1.15-2.29,2.84-2.82,5.07-.28,1.17-.29,2.44-.03,3.81.26,1.38.69,2.59,1.3,3.65-1.19.73-2.55,1.17-4.06,1.32-1.51.15-3,.05-4.47-.31Z"/>
  </g>
</svg>